# xmcd
#
# Track frame offsets: 
#        150
#        18610
#        33738
#        45973
#        58803
#        90378
#        101890
#
# Disc length: 2463 seconds
#
# Revision: 0
# Processed by: cddbd v1.5.2PL0 Copyright (c) Steve Scherf et al.
# Submitted via: ExactAudioCopy v0.99pb4
#
DISCID=56099d07
DTITLE=Poco - Poco
DYEAR=1970
DGENRE=Country-Rock
TTITLE0=Hurry Up
TTITLE1=You Better Think Twice
TTITLE2=Honky Tonk Downstairs
TTITLE3=Keep On Believin'
TTITLE4=Anyway Bye Bye
TTITLE5=Don't Let It Pass By
TTITLE6=Nobody's Fool · El Tonto de Nadie, Regresa
EXTD=Jim Messina, Richie Furay: guitar, vocals\nRusty Young: steel gui
EXTD=tar, guitar, vocals\nTimothy B. Schmit: bass guitar, vocals\nGeor
EXTD=ge Grantham: drums, vocals\nLarry Knechtel, Bobby Doyle: piano\nM
EXTD=ilton Holland: percussion\nEngineers: Terry Dunavan, Alex Kasaneg
EXTD=ras\nProduced by Jim Messina.\nOriginally released as Epic LP BN-
EXTD=26522 (1970-05-06).\nCD: Epic EK 26522 (2008-03-01), 886972497020
EXTD=
EXTT0=(Richie Furay)
EXTT1=(Jim Messina)
EXTT2=(Dallas Frazier)
EXTT3=(Richie Furay/Timothy B. Schmit)
EXTT4=(Richie Furay)
EXTT5=(Richie Furay)
EXTT6=(Richie Furay · Poco)
PLAYORDER=
